<?xml version="1.0" encoding="UTF-8"?>
<svg width="13px" height="22px" viewBox="0 0 13 22" version="1.1" xmlns="http://www.w3.org/2000/svg" xmlns:xlink="http://www.w3.org/1999/xlink">
    <!-- Generator: sketchtool 52.2 (67145) - http://www.bohemiancoding.com/sketch -->
    <title>05782D86-48F5-465E-B270-6ED619B86216</title>
    <desc>Created with sketchtool.</desc>
    <g id="HOMIE-2" stroke="none" stroke-width="1" fill="#4A4A4A" fill-rule="evenodd">
        <g id="busqueda-scroll" transform="translate(-250.000000, -270.000000)" fill="#4A4A4A" fill-rule="nonzero">
            <g id="thumbnail-depa" transform="translate(20.000000, 205.000000)">
                <path d="M239.799521,85.8649057 L230.290269,76.2846895 C229.903244,75.8947753 229.903244,75.2656572 230.290269,74.875743 L239.799521,65.2955268 C240.188591,64.9035534 240.821752,64.9011997 241.213725,65.2902695 C241.215484,65.2920154 241.217236,65.2937679 241.218982,65.2955268 L242.091419,66.1744747 C242.478445,66.5643889 242.478445,67.193507 242.091419,67.5834212 L234.15386,75.5802162 L242.091419,83.5770113 C242.478445,83.9669255 242.478445,84.5960436 242.091419,84.9859578 L241.218982,85.8649057 C240.829912,86.2568791 240.196752,86.2592328 239.804778,85.870163 C239.803019,85.8684171 239.801267,85.8666646 239.799521,85.8649057 Z" id="Shape-Copy-4" transform="translate(236.190844, 75.580216) scale(-1, 1) translate(-236.190844, -75.580216) "></path>
            </g>
        </g>
    </g>
</svg>
