<?xml version="1.0" encoding="UTF-8"?>
<svg width="13px" height="22px" viewBox="0 0 13 22" version="1.1" xmlns="http://www.w3.org/2000/svg" xmlns:xlink="http://www.w3.org/1999/xlink">
    <!-- Generator: sketchtool 52.2 (67145) - http://www.bohemiancoding.com/sketch -->
    <title>7D02A88E-3708-4AB8-B032-31FD0160F343</title>
    <desc>Created with sketchtool.</desc>
    <g id="HOMIE-2" stroke="none" stroke-width="1" fill="#4A4A4A" fill-rule="evenodd">
        <g id="depa" transform="translate(-322.000000, -1528.000000)" fill="#4A4A4A" fill-rule="nonzero">
            <g id="thumbnail-depa-copy-19" transform="translate(315.000000, 1463.000000)">
                <path d="M16.7995211,85.8649057 L7.29026947,76.2846895 C6.90324351,75.8947753 6.90324351,75.2656572 7.29026947,74.875743 L16.7995211,65.2955268 C17.188591,64.9035534 17.8217516,64.9011997 18.2137249,65.2902695 C18.2154838,65.2920154 18.2172363,65.2937679 18.2189822,65.2955268 L19.0914194,66.1744747 C19.4784453,66.5643889 19.4784453,67.193507 19.0914194,67.5834212 L11.1538599,75.5802162 L19.0914194,83.5770113 C19.4784453,83.9669255 19.4784453,84.5960436 19.0914194,84.9859578 L18.2189822,85.8649057 C17.8299123,86.2568791 17.1967517,86.2592328 16.8047784,85.870163 C16.8030194,85.8684171 16.801267,85.8666646 16.7995211,85.8649057 Z" id="Shape-Copy-5"></path>
            </g>
        </g>
    </g>
</svg>
