<?xml version="1.0" encoding="UTF-8"?>
<svg width="68px" height="37px" viewBox="0 0 68 37" version="1.1" xmlns="http://www.w3.org/2000/svg" xmlns:xlink="http://www.w3.org/1999/xlink">
    <!-- Generator: sketchtool 51.3 (57544) - http://www.bohemiancoding.com/sketch -->
    <title>E0BC36F6-6228-4320-A1DF-DF265C6AF186</title>
    <desc>Created with sketchtool.</desc>
    <defs></defs>
    <g id="HOMIE-2.0" stroke="none" stroke-width="1" fill="none" fill-rule="evenodd">
        <g id="Filtros" transform="translate(-629.000000, -93.000000)" fill="#ff1555">
            <g id="map-copy" transform="translate(595.000000, 59.000000)">
                <g id="location-copy-12" transform="translate(34.000000, 34.000000)">
                    <path d="M2,4.26325641e-14 L65.9291719,-2.08721929e-14 C67.0337414,-2.1075099e-14 67.9291719,0.8954305 67.9291719,2 L67.9291719,23.1112804 C67.9291719,24.2158499 67.0337414,25.1112804 65.9291719,25.1112804 L13.1626299,25.1112804 C12.5548036,25.1112804 11.9799621,25.3876941 11.6004313,25.8624668 L3.56219864,35.9178633 C2.87249792,36.7806418 1.61396487,36.920949 0.751186393,36.2312483 C0.276413708,35.8517175 5.64608533e-09,35.276876 5.54880497e-09,34.6690497 L0,2 C-1.76786699e-10,0.8954305 0.8954305,-1.43271482e-10 2,-3.20057758e-10 Z" id="Rectangle-2"></path>
                </g>
            </g>
        </g>
    </g>
</svg>